<?xml version="1.0" encoding="UTF-8"?>
<svg id="Camada_2" xmlns="http://www.w3.org/2000/svg" viewBox="0 0 1175.45 328.05">
  <defs>
    <style>
      .cls-1, .cls-2, .cls-3 {
        fill-rule: evenodd;
      }

      .cls-1, .cls-4 {
        fill: #f29100;
      }

      .cls-2, .cls-5 {
        fill: #2d2e82;
      }

      .cls-3, .cls-6 {
        fill: #93c01f;
      }
    </style>
  </defs>
  <g id="Layer_1">
    <g>
      <path class="cls-1" d="M4.24,328.05c41.78-43.22,70.47-76.28,25.35-125.6C11.79,183,1,158.69.07,132.23c-.35-9.62.65-19.25,2.91-28.58h17.18c-1.9,7.36-2.89,15-2.89,22.77,0,24.2,9.57,47.22,26.66,64.33,17.12,17.13,40.16,26.7,64.4,26.7s47.27-9.54,64.38-26.67c17.12-17.12,26.67-40.15,26.67-64.36s-9.55-47.25-26.67-64.36c-14-14-31.95-22.93-51.27-25.72v-14.1c21.19,1.17,43.56,7.1,60.55,20.2,17.15,13.23,25.72,31.63,26.48,53.23.1,2.71.07,5.43-.06,8.13-.29,6.2-1.08,11.5-2.64,17.47-4.98,19.15,2.88,23.63,16.18,37.49,2.24,2.34,4.47,4.72,6.54,7.21,1.24,1.49,2.62,3.21,3.6,4.91-.46.05-.94.14-1.49.26-7.18,1.63-12.88,5.88-16.52,12.29-3.22,5.66-4.3,12.29-4.23,18.73.5,11,2.17,21.65,2.98,32.37.04,1.82.42,3.86-1.91,4.05-12.82,1.07-26.9,3.03-38.85,8.02-19.41,8.11-29.76,22.83-21.46,43.92l16.9,37.45c-54.42,0-108.81.02-163.28.07"/>
      <path class="cls-2" d="M345.8,224.32h-103.67v103.65h-60.71l-19.11-42.16-.23-.66c-4.54-12.92,3.73-22.26,14.83-26.9,10.77-4.5,23.45-6.1,35.04-7.07,6.04-.51,10.36-2.73,12.37-8.65.64-1.89,1.43-6.67,1.15-8.68l-.11-.61-2.92-31.24v-.84c.03-1.4.11-2.82.29-4.21,2.46-9.58,7.55-14.62,16.06-13.76,6.61.17,8.54-3.42,7.54-9.7-.46-2.96-1.65-5.92-3.1-8.52-1.39-2.48-3.25-4.86-5.06-7.04-2.27-2.73-4.68-5.35-7.14-7.91-22.42-23.41-11.28-19.38-10.02-45.63.15-3.05.18-6.11.07-9.16-.91-25.46-11.07-47.09-31.37-62.75-10.36-7.99-22.45-13.44-34.98-17.13-10.81-3.23-21.25-4.73-33.28-4.85V0h120.69v103.65h103.67v120.67Z"/>
      <path class="cls-3" d="M108.33,65.99c-16.08,0-31.36,6.34-42.73,17.7-11.38,11.37-17.73,26.65-17.73,42.73s6.34,31.35,17.7,42.72c11.37,11.38,26.66,17.72,42.76,17.72s31.38-6.33,42.74-17.7c11.37-11.38,17.71-26.65,17.71-42.74s-6.34-31.36-17.71-42.73c-11.36-11.36-26.66-17.7-42.74-17.7M108.33,48.04c-20.86,0-40.67,8.23-55.41,22.96-14.76,14.74-23,34.56-23,55.43s8.23,40.66,22.96,55.4c14.75,14.76,34.58,22.99,55.45,22.99s40.7-8.21,55.43-22.96c14.74-14.75,22.96-34.57,22.96-55.43s-8.22-40.68-22.96-55.43c-14.74-14.74-34.58-22.96-55.43-22.96Z"/>
      <polygon class="cls-3" points="95.55 87.1 121.09 87.1 121.09 113.65 147.65 113.65 147.65 139.19 121.09 139.19 121.09 165.74 95.55 165.74 95.55 139.19 68.99 139.19 68.99 113.65 95.55 113.65 95.55 87.1"/>
    </g>
    <g>
      <g>
        <path class="cls-5" d="M463.92,136.54c-3.06,0-5.61-.7-7.65-2.1s-3.74-3.59-5.1-6.57l-30.87-68c-1.45-3.06-1.89-5.78-1.34-8.17.55-2.38,1.76-4.25,3.64-5.61,1.87-1.36,4.21-2.04,7.02-2.04,3.49,0,6.12.79,7.91,2.36,1.79,1.57,3.27,3.85,4.46,6.83l26.02,60.21h-7.14l26.02-60.34c1.28-2.98,2.81-5.23,4.59-6.76,1.79-1.53,4.34-2.3,7.65-2.3,2.55,0,4.7.7,6.44,2.1,1.74,1.4,2.85,3.25,3.32,5.55.47,2.3.02,5.02-1.34,8.17l-30.87,68c-1.36,2.98-3.02,5.17-4.98,6.57-1.96,1.4-4.55,2.1-7.78,2.1Z"/>
        <path class="cls-5" d="M522.85,62.3c-4.08,0-7.23-.94-9.44-2.81-2.21-1.87-3.32-4.55-3.32-8.04s1.1-6.29,3.32-8.17c2.21-1.87,5.36-2.81,9.44-2.81s7.1.94,9.31,2.81c2.21,1.87,3.32,4.59,3.32,8.17s-1.11,6.17-3.32,8.04c-2.21,1.87-5.32,2.81-9.31,2.81ZM522.85,136.29c-3.74,0-6.57-1.04-8.48-3.12-1.91-2.08-2.87-5.12-2.87-9.12v-40.44c0-4,.96-7.04,2.87-9.12,1.91-2.08,4.74-3.12,8.48-3.12s6.36,1.04,8.36,3.12c2,2.08,3,5.12,3,9.12v40.44c0,4-.98,7.04-2.93,9.12-1.96,2.08-4.76,3.12-8.42,3.12Z"/>
        <path class="cls-5" d="M568.78,136.54c-2.89,0-5.42-.76-7.59-2.3-2.17-1.53-3.89-3.78-5.17-6.76l-18.12-41.72c-1.11-2.63-1.49-5.04-1.15-7.21.34-2.17,1.42-3.93,3.25-5.29,1.83-1.36,4.36-2.04,7.59-2.04,2.72,0,4.91.64,6.57,1.91,1.66,1.28,3.17,3.7,4.53,7.27l12.88,33.17h-4.34l13.52-33.3c1.36-3.4,2.89-5.76,4.59-7.08,1.7-1.32,4.04-1.98,7.02-1.98,2.55,0,4.61.68,6.19,2.04,1.57,1.36,2.53,3.13,2.87,5.29.34,2.17-.09,4.57-1.28,7.21l-18.63,41.84c-1.28,2.98-2.98,5.21-5.1,6.7-2.13,1.49-4.68,2.23-7.65,2.23Z"/>
        <path class="cls-5" d="M637.92,136.8c-7.65,0-14.27-1.36-19.84-4.08-5.57-2.72-9.84-6.55-12.82-11.48-2.98-4.93-4.46-10.72-4.46-17.35s1.42-12.16,4.27-17.09c2.85-4.93,6.76-8.8,11.74-11.61,4.98-2.81,10.65-4.21,17.03-4.21,4.68,0,8.93.76,12.76,2.3s7.08,3.72,9.76,6.57c2.68,2.85,4.74,6.27,6.19,10.27,1.45,4,2.17,8.5,2.17,13.52,0,1.62-.47,2.85-1.4,3.7-.94.85-2.38,1.28-4.34,1.28h-39.17v-10.84h28.19l-1.91,1.66c0-3.15-.43-5.72-1.28-7.72-.85-2-2.1-3.49-3.76-4.47-1.66-.98-3.72-1.47-6.19-1.47-2.64,0-4.93.62-6.89,1.85-1.96,1.23-3.42,3.04-4.4,5.42-.98,2.38-1.47,5.36-1.47,8.93v1.02c0,6.12,1.34,10.46,4.02,13.01,2.68,2.55,6.83,3.83,12.44,3.83,1.87,0,4.02-.21,6.44-.64,2.42-.42,4.74-1.06,6.95-1.91,2.21-.85,4.12-1,5.74-.45,1.62.55,2.87,1.47,3.76,2.74.89,1.28,1.4,2.79,1.53,4.53.13,1.74-.26,3.38-1.15,4.91-.89,1.53-2.36,2.72-4.4,3.57-2.89,1.36-6.02,2.4-9.38,3.12-3.36.72-6.74,1.08-10.14,1.08Z"/>
        <path class="cls-5" d="M679.76,136.54c-3.74,0-6.61-1-8.61-3-2-2-3-4.83-3-8.48v-42.35c0-3.66.96-6.48,2.87-8.48,1.91-2,4.66-3,8.23-3s6.19,1,8.1,3c1.91,2,2.87,4.83,2.87,8.48v5.23h-1.28c.85-5.1,3.04-9.16,6.57-12.18,3.53-3.02,7.93-4.61,13.2-4.78,2.47-.08,4.32.55,5.55,1.91,1.23,1.36,1.89,3.83,1.98,7.4,0,3.06-.64,5.47-1.91,7.21-1.28,1.74-3.66,2.83-7.14,3.25l-3.06.25c-4.42.43-7.7,1.68-9.82,3.76-2.13,2.08-3.19,5.17-3.19,9.25v21.05c0,3.66-.96,6.49-2.87,8.48-1.91,2-4.74,3-8.48,3Z"/>
        <path class="cls-5" d="M761.03,135.27c-4,0-7.04-1.04-9.12-3.13-2.08-2.08-3.12-5.12-3.12-9.12V57.58c0-4,1.04-7.04,3.12-9.12s5.12-3.13,9.12-3.13h31.13c6.46,0,11.95.94,16.46,2.81,4.51,1.87,7.97,4.55,10.4,8.04,2.42,3.49,3.64,7.61,3.64,12.38,0,5.27-1.51,9.78-4.53,13.52-3.02,3.74-7.08,6.34-12.18,7.78v-2.17c6.04,1.19,10.74,3.66,14.1,7.4,3.36,3.74,5.04,8.63,5.04,14.67,0,7.91-2.83,14.14-8.48,18.69-5.66,4.55-13.42,6.83-23.28,6.83h-32.28ZM771.1,81.05h16.71c4.42,0,7.61-.77,9.57-2.3,1.96-1.53,2.93-3.87,2.93-7.02s-.98-5.46-2.93-6.95c-1.96-1.49-5.15-2.23-9.57-2.23h-16.71v18.5ZM771.1,118.04h19.14c4.34,0,7.5-.83,9.5-2.49,2-1.66,3-4.1,3-7.33,0-3.4-1-5.93-3-7.59-2-1.66-5.17-2.49-9.5-2.49h-19.14v19.9Z"/>
        <path class="cls-5" d="M864.61,136.8c-7.65,0-14.27-1.36-19.84-4.08-5.57-2.72-9.84-6.55-12.82-11.48-2.98-4.93-4.47-10.72-4.47-17.35s1.42-12.16,4.27-17.09c2.85-4.93,6.76-8.8,11.74-11.61,4.98-2.81,10.65-4.21,17.03-4.21,4.68,0,8.93.76,12.76,2.3s7.08,3.72,9.76,6.57c2.68,2.85,4.74,6.27,6.19,10.27,1.45,4,2.17,8.5,2.17,13.52,0,1.62-.47,2.85-1.4,3.7-.94.85-2.38,1.28-4.34,1.28h-39.16v-10.84h28.19l-1.91,1.66c0-3.15-.43-5.72-1.28-7.72-.85-2-2.1-3.49-3.76-4.47-1.66-.98-3.72-1.47-6.19-1.47-2.64,0-4.93.62-6.89,1.85-1.96,1.23-3.42,3.04-4.4,5.42-.98,2.38-1.47,5.36-1.47,8.93v1.02c0,6.12,1.34,10.46,4.02,13.01,2.68,2.55,6.83,3.83,12.44,3.83,1.87,0,4.02-.21,6.44-.64,2.42-.42,4.74-1.06,6.95-1.91,2.21-.85,4.12-1,5.74-.45,1.61.55,2.87,1.47,3.76,2.74.89,1.28,1.4,2.79,1.53,4.53.13,1.74-.25,3.38-1.15,4.91-.89,1.53-2.36,2.72-4.4,3.57-2.89,1.36-6.02,2.4-9.38,3.12-3.36.72-6.74,1.08-10.14,1.08Z"/>
        <path class="cls-5" d="M906.46,136.54c-3.74,0-6.57-1-8.48-3-1.91-2-2.87-4.83-2.87-8.48v-42.35c0-3.66.96-6.48,2.87-8.48,1.91-2,4.66-3,8.23-3s6.19,1,8.1,3c1.91,2,2.87,4.83,2.87,8.48v7.02l-1.4-6.25c1.79-3.74,4.44-6.76,7.97-9.06,3.53-2.3,7.72-3.44,12.57-3.44,4.59,0,8.5,1.13,11.74,3.38,3.23,2.25,5.61,5.64,7.14,10.14h-1.79c2.04-4.17,4.98-7.46,8.8-9.89s8.21-3.64,13.14-3.64,8.84,1,11.99,3c3.15,2,5.51,4.97,7.08,8.93,1.57,3.96,2.36,9.04,2.36,15.25v26.92c0,3.66-.98,6.49-2.93,8.48-1.96,2-4.76,3-8.42,3s-6.57-1-8.48-3c-1.91-2-2.87-4.83-2.87-8.48v-26.28c0-3.66-.55-6.29-1.66-7.91-1.11-1.61-2.98-2.42-5.61-2.42-2.98,0-5.32,1.08-7.02,3.25-1.7,2.17-2.55,5.38-2.55,9.63v23.73c0,3.66-1,6.49-3,8.48-2,2-4.78,3-8.36,3s-6.46-1-8.42-3c-1.96-2-2.93-4.83-2.93-8.48v-26.28c0-3.66-.53-6.29-1.59-7.91-1.06-1.61-2.91-2.42-5.55-2.42-3.06,0-5.42,1.08-7.08,3.25-1.66,2.17-2.49,5.38-2.49,9.63v23.73c0,7.65-3.79,11.48-11.35,11.48Z"/>
      </g>
      <g>
        <path d="M439.52,296.38v-3.17c-.33.47-.69.91-1.08,1.34s-.84.8-1.33,1.13-1.03.58-1.63.76c-.6.18-1.27.27-2,.27-.96,0-1.88-.18-2.77-.55-.89-.37-1.7-.9-2.41-1.6s-1.28-1.56-1.71-2.58c-.43-1.02-.64-2.17-.64-3.48s.21-2.46.64-3.47,1-1.88,1.71-2.58,1.51-1.24,2.41-1.62c.89-.38,1.82-.56,2.77-.56.73,0,1.4.09,2.01.27.61.18,1.16.43,1.65.73s.93.66,1.33,1.07c.4.41.75.83,1.05,1.28v-9.51h2.35v22.25h-2.35ZM439.14,286c-.32-.75-.74-1.39-1.28-1.91-.54-.53-1.15-.94-1.83-1.23-.68-.29-1.39-.44-2.12-.44-.77,0-1.49.14-2.16.41-.67.27-1.25.67-1.75,1.18s-.89,1.15-1.19,1.91c-.29.76-.44,1.61-.44,2.56s.15,1.77.44,2.52c.29.75.7,1.39,1.2,1.93.51.54,1.1.95,1.77,1.23.67.28,1.38.42,2.13.42s1.44-.15,2.12-.44c.68-.29,1.29-.7,1.83-1.23.54-.53.96-1.17,1.28-1.93.31-.76.47-1.59.47-2.5s-.16-1.74-.47-2.49Z"/>
        <path d="M449.15,291.64c.32.66.74,1.22,1.25,1.68.51.46,1.08.8,1.71,1.04.63.23,1.29.35,1.98.35,1.1,0,2.04-.2,2.82-.61.78-.41,1.5-.95,2.15-1.62l1.46,1.31c-.79.89-1.7,1.61-2.71,2.15-1.02.54-2.28.81-3.78.81-1.08,0-2.09-.2-3.05-.59-.96-.4-1.79-.96-2.51-1.68-.72-.72-1.29-1.59-1.71-2.61-.42-1.02-.63-2.13-.63-3.35,0-1.14.19-2.21.56-3.22s.9-1.88,1.57-2.62c.67-.74,1.47-1.33,2.39-1.75.92-.43,1.94-.64,3.03-.64,1.16,0,2.2.22,3.11.66.91.44,1.69,1.03,2.32,1.78.63.75,1.11,1.64,1.43,2.65.32,1.02.49,2.1.49,3.26v.34c0,.12-.01.25-.03.4h-12.47c.08.85.28,1.61.61,2.27ZM458.63,287.63c-.06-.71-.21-1.39-.44-2.04s-.56-1.22-.97-1.71c-.41-.49-.92-.88-1.52-1.17-.6-.29-1.29-.44-2.08-.44-.69,0-1.32.14-1.91.41s-1.1.65-1.55,1.13c-.44.48-.81,1.04-1.09,1.69-.28.65-.46,1.36-.55,2.13h10.09Z"/>
        <path d="M480.43,291.96c-.43,1.02-.99,1.87-1.69,2.58s-1.5,1.24-2.41,1.62-1.83.56-2.79.56c-.73,0-1.4-.09-2.01-.27-.61-.18-1.16-.43-1.65-.73s-.93-.66-1.33-1.07c-.4-.41-.75-.83-1.05-1.28v7.9h-2.35v-20.64h2.35v3.17c.33-.47.69-.92,1.08-1.34.4-.43.84-.8,1.33-1.11.49-.31,1.03-.57,1.63-.76.6-.19,1.27-.29,2-.29.93,0,1.85.18,2.76.55.9.37,1.71.9,2.42,1.6s1.28,1.56,1.71,2.58c.43,1.02.64,2.18.64,3.48s-.21,2.46-.64,3.48ZM478.22,286c-.29-.75-.7-1.39-1.2-1.93-.51-.54-1.1-.95-1.77-1.23-.67-.28-1.38-.42-2.13-.42s-1.44.15-2.12.44c-.68.29-1.29.7-1.83,1.23-.54.53-.97,1.16-1.28,1.91-.32.75-.47,1.58-.47,2.49s.16,1.74.47,2.5c.31.76.74,1.4,1.28,1.93.54.53,1.15.94,1.83,1.23.68.29,1.39.44,2.12.44s1.47-.14,2.15-.41c.68-.27,1.27-.67,1.77-1.18s.89-1.15,1.19-1.91c.29-.76.44-1.61.44-2.56s-.15-1.77-.44-2.52Z"/>
        <path d="M487.44,291.64c.32.66.74,1.22,1.25,1.68.51.46,1.08.8,1.71,1.04.63.23,1.29.35,1.98.35,1.1,0,2.04-.2,2.82-.61.78-.41,1.5-.95,2.15-1.62l1.46,1.31c-.79.89-1.7,1.61-2.71,2.15-1.02.54-2.28.81-3.78.81-1.08,0-2.09-.2-3.05-.59-.96-.4-1.79-.96-2.51-1.68-.72-.72-1.29-1.59-1.71-2.61-.42-1.02-.63-2.13-.63-3.35,0-1.14.19-2.21.56-3.22s.9-1.88,1.57-2.62c.67-.74,1.47-1.33,2.39-1.75.92-.43,1.94-.64,3.03-.64,1.16,0,2.2.22,3.11.66.91.44,1.69,1.03,2.32,1.78.63.75,1.11,1.64,1.43,2.65.32,1.02.49,2.1.49,3.26v.34c0,.12-.01.25-.03.4h-12.47c.08.85.28,1.61.61,2.27ZM496.92,287.63c-.06-.71-.21-1.39-.44-2.04s-.56-1.22-.97-1.71c-.41-.49-.92-.88-1.52-1.17-.6-.29-1.29-.44-2.08-.44-.69,0-1.32.14-1.91.41s-1.1.65-1.55,1.13c-.44.48-.81,1.04-1.09,1.69-.28.65-.46,1.36-.55,2.13h10.09Z"/>
        <path d="M505.79,296.38h-2.35v-15.76h2.35v2.74c.53-.85,1.22-1.58,2.07-2.18s1.96-.9,3.32-.9c.96,0,1.8.15,2.55.46.74.3,1.37.74,1.89,1.3.52.56.91,1.22,1.19,2,.27.77.41,1.63.41,2.56v9.79h-2.35v-9.21c0-1.46-.38-2.62-1.13-3.48s-1.83-1.28-3.23-1.28c-.67,0-1.3.12-1.87.35-.58.23-1.08.57-1.51,1.01-.43.44-.76.96-.99,1.57-.23.61-.35,1.28-.35,2.01v9.02Z"/>
        <path d="M534.87,296.38v-3.17c-.33.47-.69.91-1.08,1.34s-.84.8-1.33,1.13-1.03.58-1.63.76c-.6.18-1.27.27-2,.27-.96,0-1.88-.18-2.77-.55-.89-.37-1.7-.9-2.41-1.6s-1.28-1.56-1.71-2.58c-.43-1.02-.64-2.17-.64-3.48s.21-2.46.64-3.47,1-1.88,1.71-2.58,1.51-1.24,2.41-1.62c.89-.38,1.82-.56,2.77-.56.73,0,1.4.09,2.01.27.61.18,1.16.43,1.65.73s.93.66,1.33,1.07c.4.41.75.83,1.05,1.28v-9.51h2.35v22.25h-2.35ZM534.49,286c-.32-.75-.74-1.39-1.28-1.91-.54-.53-1.15-.94-1.83-1.23-.68-.29-1.39-.44-2.12-.44-.77,0-1.49.14-2.16.41-.67.27-1.25.67-1.75,1.18s-.89,1.15-1.19,1.91c-.29.76-.44,1.61-.44,2.56s.15,1.77.44,2.52c.29.75.7,1.39,1.2,1.93.51.54,1.1.95,1.77,1.23.67.28,1.38.42,2.13.42s1.44-.15,2.12-.44c.68-.29,1.29-.7,1.83-1.23.54-.53.96-1.17,1.28-1.93.31-.76.47-1.59.47-2.5s-.16-1.74-.47-2.49Z"/>
        <path d="M544.51,291.64c.32.66.74,1.22,1.25,1.68.51.46,1.08.8,1.71,1.04.63.23,1.29.35,1.98.35,1.1,0,2.04-.2,2.82-.61.78-.41,1.5-.95,2.15-1.62l1.46,1.31c-.79.89-1.7,1.61-2.71,2.15-1.02.54-2.28.81-3.78.81-1.08,0-2.09-.2-3.05-.59-.96-.4-1.79-.96-2.51-1.68-.72-.72-1.29-1.59-1.71-2.61-.42-1.02-.63-2.13-.63-3.35,0-1.14.19-2.21.56-3.22s.9-1.88,1.57-2.62c.67-.74,1.47-1.33,2.39-1.75.92-.43,1.94-.64,3.03-.64,1.16,0,2.2.22,3.11.66.91.44,1.69,1.03,2.32,1.78.63.75,1.11,1.64,1.43,2.65.32,1.02.49,2.1.49,3.26v.34c0,.12-.01.25-.03.4h-12.47c.08.85.28,1.61.61,2.27ZM553.99,287.63c-.06-.71-.21-1.39-.44-2.04s-.56-1.22-.97-1.71c-.41-.49-.92-.88-1.52-1.17-.6-.29-1.29-.44-2.08-.44-.69,0-1.32.14-1.91.41s-1.1.65-1.55,1.13c-.44.48-.81,1.04-1.09,1.69-.28.65-.46,1.36-.55,2.13h10.09ZM546.64,278.24h-1.95l3.23-3.99h2.07l3.23,3.99h-2.01l-2.29-2.04-2.29,2.04Z"/>
        <path d="M562.86,296.38h-2.35v-15.76h2.35v2.74c.53-.85,1.22-1.58,2.07-2.18s1.96-.9,3.32-.9c.96,0,1.8.15,2.55.46.74.3,1.37.74,1.89,1.3.52.56.91,1.22,1.19,2,.27.77.41,1.63.41,2.56v9.79h-2.35v-9.21c0-1.46-.38-2.62-1.13-3.48s-1.83-1.28-3.23-1.28c-.67,0-1.3.12-1.87.35-.58.23-1.08.57-1.51,1.01-.43.44-.76.96-.99,1.57-.23.61-.35,1.28-.35,2.01v9.02Z"/>
        <path d="M590.13,295.88c-1.01.58-2.25.87-3.73.87-1.16,0-2.23-.22-3.22-.66-.99-.44-1.84-1.03-2.56-1.77-.72-.74-1.29-1.61-1.69-2.61-.41-1-.61-2.05-.61-3.17s.2-2.18.61-3.19c.41-1.01.97-1.88,1.69-2.64.72-.75,1.57-1.35,2.56-1.78.99-.44,2.06-.66,3.22-.66.75,0,1.43.07,2.04.21.61.14,1.17.34,1.68.59.51.25.98.55,1.4.9s.82.71,1.19,1.1l-1.55,1.65c-.63-.65-1.32-1.21-2.06-1.68-.74-.47-1.65-.7-2.73-.7-.79,0-1.53.16-2.23.47-.69.31-1.29.75-1.8,1.31-.51.56-.9,1.21-1.19,1.95-.29.74-.43,1.54-.43,2.39s.15,1.65.44,2.4c.29.75.7,1.4,1.22,1.96.52.56,1.13.99,1.83,1.31s1.47.47,2.3.47c1.02,0,1.92-.22,2.7-.67.78-.45,1.49-1.01,2.12-1.68l1.49,1.4c-.79.9-1.69,1.64-2.7,2.21Z"/>
        <path d="M596.76,277.18v-2.59h2.68v2.59h-2.68ZM596.91,296.38v-15.76h2.35v15.76h-2.35Z"/>
        <path d="M607.87,282.8c-.76.21-1.51.49-2.24.84l-.7-1.92c.87-.41,1.76-.73,2.65-.96.89-.23,1.92-.35,3.08-.35,2.15,0,3.81.53,4.97,1.6,1.16,1.07,1.74,2.65,1.74,4.74v9.63h-2.26v-2.38c-.55.71-1.29,1.34-2.21,1.89-.92.55-2.09.82-3.49.82-.73,0-1.45-.1-2.15-.3s-1.33-.51-1.89-.93c-.56-.42-1.01-.93-1.34-1.54-.33-.61-.5-1.33-.5-2.17s.16-1.57.49-2.21c.33-.64.79-1.17,1.39-1.6s1.31-.75,2.13-.98c.82-.22,1.73-.33,2.73-.33s1.9.06,2.65.18c.75.12,1.48.29,2.19.49v-.55c0-1.42-.41-2.49-1.23-3.22s-1.98-1.08-3.46-1.08c-.93,0-1.78.11-2.55.32ZM607.12,289.28c-.79.59-1.19,1.39-1.19,2.41,0,.51.11.96.32,1.34.21.39.5.72.87.99.36.27.78.48,1.26.62.48.14.98.21,1.5.21.73,0,1.41-.11,2.05-.32.64-.21,1.2-.51,1.67-.88.48-.38.85-.82,1.12-1.34.27-.52.41-1.09.41-1.72v-1.52c-.59-.16-1.26-.31-2.02-.46-.76-.14-1.62-.21-2.6-.21-1.48,0-2.61.29-3.4.88Z"/>
        <path d="M644.16,301.26v-8.05c-.33.47-.69.91-1.08,1.34s-.84.8-1.33,1.13c-.49.33-1.03.58-1.63.76-.6.18-1.26.27-2,.27-.96,0-1.88-.18-2.77-.55-.89-.37-1.7-.9-2.41-1.6-.71-.7-1.28-1.56-1.71-2.58-.43-1.02-.64-2.17-.64-3.48s.21-2.46.64-3.47,1-1.88,1.71-2.58c.71-.7,1.51-1.24,2.41-1.62.89-.38,1.82-.56,2.77-.56.73,0,1.4.09,2.01.27.61.18,1.16.43,1.65.73.49.3.93.66,1.33,1.07s.75.83,1.05,1.28v-3.02h2.35v20.64h-2.35ZM643.78,286c-.32-.75-.74-1.39-1.28-1.91-.54-.53-1.15-.94-1.83-1.23-.68-.29-1.39-.44-2.12-.44-.77,0-1.49.14-2.16.41-.67.27-1.25.67-1.75,1.18s-.89,1.15-1.19,1.91c-.29.76-.44,1.61-.44,2.56s.15,1.77.44,2.52c.29.75.7,1.39,1.2,1.93.51.54,1.1.95,1.77,1.23.67.28,1.38.42,2.13.42s1.44-.15,2.12-.44c.68-.29,1.29-.7,1.83-1.23.54-.53.96-1.17,1.28-1.93.31-.76.47-1.59.47-2.5s-.16-1.74-.47-2.49Z"/>
        <path d="M662.94,280.62h2.32v15.76h-2.32v-2.74c-.53.85-1.22,1.58-2.07,2.18-.85.6-1.96.9-3.32.9-.96,0-1.8-.15-2.55-.46s-1.37-.74-1.89-1.3c-.52-.56-.92-1.22-1.19-2s-.41-1.63-.41-2.56v-9.79h2.35v9.21c0,1.46.38,2.62,1.13,3.47s1.83,1.28,3.23,1.28c.67,0,1.3-.12,1.88-.35.58-.23,1.08-.57,1.49-1.01.42-.44.75-.96.99-1.57.24-.61.37-1.28.37-2.01v-9.02Z"/>
        <path d="M670.74,296.38v-15.76h2.35v15.76h-2.35ZM670.98,278.24l2.9-4.42,2.44,1.13-3.45,3.29h-1.89Z"/>
        <path d="M692,282.21c.36-.39.76-.72,1.2-1.01.45-.28.95-.51,1.51-.67.56-.16,1.18-.24,1.87-.24,1.83,0,3.26.56,4.3,1.69s1.55,2.68,1.55,4.65v9.75h-2.35v-9.21c0-1.52-.36-2.7-1.08-3.52s-1.72-1.23-3-1.23c-.59,0-1.15.11-1.68.32-.53.21-.99.53-1.39.95-.4.42-.71.93-.95,1.54s-.35,1.3-.35,2.07v9.08h-2.32v-9.27c0-1.48-.36-2.64-1.08-3.46-.72-.82-1.71-1.23-2.97-1.23-.63,0-1.21.12-1.74.37-.53.24-.99.59-1.39,1.04-.4.45-.71.97-.93,1.57-.22.6-.34,1.26-.34,2v8.99h-2.35v-15.76h2.35v2.65c.26-.39.55-.76.87-1.13.31-.37.67-.69,1.08-.96.41-.27.86-.49,1.37-.66.51-.16,1.1-.24,1.77-.24,1.28,0,2.34.3,3.17.9.83.6,1.46,1.35,1.89,2.24.28-.43.6-.83.96-1.22Z"/>
        <path d="M707.6,277.18v-2.59h2.68v2.59h-2.68ZM707.75,296.38v-15.76h2.35v15.76h-2.35Z"/>
        <path d="M726.39,295.88c-1.01.58-2.25.87-3.73.87-1.16,0-2.23-.22-3.22-.66-.99-.44-1.84-1.03-2.56-1.77-.72-.74-1.29-1.61-1.69-2.61-.41-1-.61-2.05-.61-3.17s.2-2.18.61-3.19c.41-1.01.97-1.88,1.69-2.64.72-.75,1.58-1.35,2.56-1.78.99-.44,2.06-.66,3.22-.66.75,0,1.43.07,2.04.21.61.14,1.17.34,1.68.59.51.25.98.55,1.4.9s.82.71,1.19,1.1l-1.55,1.65c-.63-.65-1.32-1.21-2.06-1.68-.74-.47-1.65-.7-2.73-.7-.79,0-1.54.16-2.23.47-.69.31-1.29.75-1.8,1.31-.51.56-.9,1.21-1.19,1.95-.29.74-.43,1.54-.43,2.39s.15,1.65.44,2.4c.29.75.7,1.4,1.22,1.96.52.56,1.13.99,1.83,1.31s1.47.47,2.3.47c1.02,0,1.92-.22,2.7-.67s1.49-1.01,2.12-1.68l1.49,1.4c-.79.9-1.69,1.64-2.7,2.21Z"/>
        <path d="M736.11,282.8c-.76.21-1.51.49-2.24.84l-.7-1.92c.87-.41,1.76-.73,2.65-.96.89-.23,1.92-.35,3.08-.35,2.15,0,3.81.53,4.97,1.6,1.16,1.07,1.74,2.65,1.74,4.74v9.63h-2.26v-2.38c-.55.71-1.29,1.34-2.21,1.89-.92.55-2.09.82-3.49.82-.73,0-1.45-.1-2.15-.3s-1.33-.51-1.89-.93c-.56-.42-1.01-.93-1.34-1.54-.33-.61-.5-1.33-.5-2.17s.16-1.57.49-2.21c.32-.64.79-1.17,1.39-1.6s1.31-.75,2.13-.98c.82-.22,1.73-.33,2.73-.33s1.9.06,2.65.18c.75.12,1.48.29,2.19.49v-.55c0-1.42-.41-2.49-1.23-3.22s-1.98-1.08-3.46-1.08c-.93,0-1.78.11-2.55.32ZM735.36,289.28c-.79.59-1.19,1.39-1.19,2.41,0,.51.11.96.32,1.34.21.39.5.72.87.99.36.27.78.48,1.26.62.48.14.98.21,1.5.21.73,0,1.41-.11,2.05-.32.64-.21,1.2-.51,1.67-.88.48-.38.85-.82,1.12-1.34.27-.52.41-1.09.41-1.72v-1.52c-.59-.16-1.26-.31-2.02-.46-.76-.14-1.62-.21-2.6-.21-1.48,0-2.61.29-3.4.88Z"/>
        <path d="M760.76,300.28v-28.23h1.98v28.23h-1.98Z"/>
        <path d="M781.29,282.8c-.76.21-1.51.49-2.24.84l-.7-1.92c.87-.41,1.76-.73,2.65-.96.89-.23,1.92-.35,3.08-.35,2.15,0,3.81.53,4.97,1.6,1.16,1.07,1.74,2.65,1.74,4.74v9.63h-2.26v-2.38c-.55.71-1.29,1.34-2.21,1.89-.92.55-2.09.82-3.49.82-.73,0-1.45-.1-2.15-.3s-1.33-.51-1.89-.93c-.56-.42-1.01-.93-1.34-1.54-.33-.61-.5-1.33-.5-2.17s.16-1.57.49-2.21c.32-.64.79-1.17,1.39-1.6s1.31-.75,2.13-.98c.82-.22,1.73-.33,2.73-.33s1.9.06,2.65.18c.75.12,1.48.29,2.19.49v-.55c0-1.42-.41-2.49-1.23-3.22s-1.98-1.08-3.46-1.08c-.93,0-1.78.11-2.55.32ZM780.54,289.28c-.79.59-1.19,1.39-1.19,2.41,0,.51.11.96.32,1.34.21.39.5.72.87.99.36.27.78.48,1.26.62.48.14.98.21,1.5.21.73,0,1.41-.11,2.05-.32.64-.21,1.2-.51,1.67-.88.48-.38.85-.82,1.12-1.34.27-.52.41-1.09.41-1.72v-1.52c-.59-.16-1.26-.31-2.02-.46-.76-.14-1.62-.21-2.6-.21-1.48,0-2.61.29-3.4.88Z"/>
        <path d="M796,296.38v-22.25h2.35v22.25h-2.35Z"/>
        <path d="M814.64,295.88c-1.01.58-2.25.87-3.73.87-1.16,0-2.23-.22-3.22-.66-.99-.44-1.84-1.03-2.56-1.77-.72-.74-1.29-1.61-1.69-2.61-.41-1-.61-2.05-.61-3.17s.2-2.18.61-3.19c.41-1.01.97-1.88,1.69-2.64.72-.75,1.58-1.35,2.56-1.78.99-.44,2.06-.66,3.22-.66.75,0,1.43.07,2.04.21.61.14,1.17.34,1.68.59.51.25.98.55,1.4.9s.82.71,1.19,1.1l-1.55,1.65c-.63-.65-1.32-1.21-2.06-1.68-.74-.47-1.65-.7-2.73-.7-.79,0-1.54.16-2.23.47-.69.31-1.29.75-1.8,1.31-.51.56-.9,1.21-1.19,1.95-.29.74-.43,1.54-.43,2.39s.15,1.65.44,2.4c.29.75.7,1.4,1.22,1.96.52.56,1.13.99,1.83,1.31s1.47.47,2.3.47c1.02,0,1.92-.22,2.7-.67s1.49-1.01,2.12-1.68l1.49,1.4c-.79.9-1.69,1.64-2.7,2.21Z"/>
        <path d="M835.58,291.67c-.42,1.01-.99,1.89-1.72,2.64-.73.75-1.61,1.35-2.62,1.78-1.02.44-2.11.66-3.29.66s-2.27-.22-3.26-.66c-1-.44-1.86-1.03-2.59-1.77s-1.3-1.61-1.71-2.61c-.41-1-.61-2.05-.61-3.17s.2-2.18.61-3.19c.41-1.01.98-1.88,1.71-2.64.73-.75,1.6-1.35,2.61-1.78,1.01-.44,2.11-.66,3.31-.66s2.27.22,3.28.66c1.01.44,1.87,1.03,2.61,1.77.73.74,1.3,1.61,1.71,2.61.41,1,.61,2.05.61,3.17s-.21,2.18-.62,3.19ZM833.36,286.13c-.29-.75-.71-1.4-1.23-1.96-.53-.56-1.15-1-1.86-1.32-.71-.32-1.48-.49-2.32-.49s-1.64.16-2.35.47c-.71.31-1.32.75-1.81,1.31-.5.56-.89,1.21-1.17,1.95-.29.74-.43,1.54-.43,2.39s.15,1.65.44,2.4c.29.75.7,1.4,1.22,1.95.52.55,1.13.98,1.84,1.31.71.33,1.48.49,2.32.49s1.64-.16,2.35-.47c.71-.31,1.32-.75,1.83-1.29.51-.55.9-1.19,1.19-1.93.28-.74.43-1.54.43-2.39s-.15-1.65-.44-2.4Z"/>
        <path d="M855.27,291.67c-.42,1.01-.99,1.89-1.72,2.64-.73.75-1.61,1.35-2.62,1.78-1.02.44-2.11.66-3.29.66s-2.27-.22-3.26-.66c-1-.44-1.86-1.03-2.59-1.77s-1.3-1.61-1.71-2.61c-.41-1-.61-2.05-.61-3.17s.2-2.18.61-3.19c.41-1.01.98-1.88,1.71-2.64.73-.75,1.6-1.35,2.61-1.78,1.01-.44,2.11-.66,3.31-.66s2.27.22,3.28.66c1.01.44,1.87,1.03,2.61,1.77.73.74,1.3,1.61,1.71,2.61.41,1,.61,2.05.61,3.17s-.21,2.18-.62,3.19ZM853.05,286.13c-.29-.75-.71-1.4-1.23-1.96-.53-.56-1.15-1-1.86-1.32-.71-.32-1.48-.49-2.32-.49s-1.64.16-2.35.47c-.71.31-1.32.75-1.81,1.31-.5.56-.89,1.21-1.17,1.95-.29.74-.43,1.54-.43,2.39s.15,1.65.44,2.4c.29.75.7,1.4,1.22,1.95.52.55,1.13.98,1.84,1.31.71.33,1.48.49,2.32.49s1.64-.16,2.35-.47c.71-.31,1.32-.75,1.83-1.29.51-.55.9-1.19,1.19-1.93.28-.74.43-1.54.43-2.39s-.15-1.65-.44-2.4Z"/>
        <path d="M860.35,296.38v-22.25h2.35v22.25h-2.35Z"/>
        <path d="M868.22,277.18v-2.59h2.68v2.59h-2.68ZM868.37,296.38v-15.76h2.35v15.76h-2.35Z"/>
        <path d="M886.55,293.96c-.29.58-.69,1.07-1.19,1.48-.5.41-1.09.72-1.77.93-.68.21-1.42.32-2.21.32-1.14,0-2.29-.21-3.45-.62-1.16-.42-2.18-.98-3.08-1.69l1.19-1.68c.85.65,1.74,1.15,2.67,1.49.92.35,1.85.52,2.79.52s1.74-.22,2.35-.67c.61-.45.91-1.06.91-1.83v-.06c0-.39-.11-.72-.32-1.01-.21-.28-.5-.53-.87-.75-.37-.21-.79-.4-1.26-.56-.48-.16-.97-.32-1.48-.46-.61-.18-1.22-.38-1.84-.59-.62-.21-1.18-.48-1.68-.81-.5-.32-.9-.73-1.22-1.22-.32-.49-.47-1.1-.47-1.83v-.06c0-.67.13-1.29.4-1.84.26-.56.64-1.04,1.11-1.43.48-.4,1.05-.7,1.71-.92.66-.21,1.38-.32,2.15-.32.98,0,1.96.16,2.96.47,1,.32,1.9.74,2.71,1.27l-1.07,1.77c-.73-.47-1.5-.84-2.3-1.11-.8-.27-1.59-.41-2.36-.41-.93,0-1.68.22-2.22.66-.55.44-.82.98-.82,1.63v.06c0,.37.11.69.33.96s.52.51.9.72.81.39,1.3.55c.49.16,1,.33,1.52.49.61.18,1.21.39,1.81.61.6.22,1.14.51,1.63.85.49.35.88.76,1.17,1.25.29.49.44,1.09.44,1.8v.06c0,.75-.15,1.42-.44,2Z"/>
        <path d="M904.81,282.21c.36-.39.76-.72,1.2-1.01.45-.28.95-.51,1.51-.67.56-.16,1.18-.24,1.87-.24,1.83,0,3.26.56,4.3,1.69s1.55,2.68,1.55,4.65v9.75h-2.35v-9.21c0-1.52-.36-2.7-1.08-3.52s-1.72-1.23-3-1.23c-.59,0-1.15.11-1.68.32-.53.21-.99.53-1.39.95-.4.42-.71.93-.95,1.54s-.35,1.3-.35,2.07v9.08h-2.32v-9.27c0-1.48-.36-2.64-1.08-3.46-.72-.82-1.71-1.23-2.97-1.23-.63,0-1.21.12-1.74.37-.53.24-.99.59-1.39,1.04-.4.45-.71.97-.93,1.57-.22.6-.34,1.26-.34,2v8.99h-2.35v-15.76h2.35v2.65c.26-.39.55-.76.87-1.13.31-.37.67-.69,1.08-.96.41-.27.86-.49,1.37-.66.51-.16,1.1-.24,1.77-.24,1.28,0,2.34.3,3.17.9.83.6,1.46,1.35,1.89,2.24.28-.43.6-.83.96-1.22Z"/>
        <path d="M935.17,291.67c-.42,1.01-.99,1.89-1.72,2.64-.73.75-1.61,1.35-2.62,1.78-1.02.44-2.11.66-3.29.66s-2.27-.22-3.26-.66c-1-.44-1.86-1.03-2.59-1.77s-1.3-1.61-1.71-2.61c-.41-1-.61-2.05-.61-3.17s.2-2.18.61-3.19c.41-1.01.98-1.88,1.71-2.64.73-.75,1.6-1.35,2.61-1.78,1.01-.44,2.11-.66,3.31-.66s2.27.22,3.28.66c1.01.44,1.87,1.03,2.61,1.77.73.74,1.3,1.61,1.71,2.61.41,1,.61,2.05.61,3.17s-.21,2.18-.62,3.19ZM932.95,286.13c-.29-.75-.71-1.4-1.23-1.96-.53-.56-1.15-1-1.86-1.32-.71-.32-1.48-.49-2.32-.49s-1.64.16-2.35.47c-.71.31-1.32.75-1.81,1.31-.5.56-.89,1.21-1.17,1.95-.29.74-.43,1.54-.43,2.39s.15,1.65.44,2.4c.29.75.7,1.4,1.22,1.95.52.55,1.13.98,1.84,1.31.71.33,1.48.49,2.32.49s1.64-.16,2.35-.47c.71-.31,1.32-.75,1.83-1.29.51-.55.9-1.19,1.19-1.93.28-.74.43-1.54.43-2.39s-.15-1.65-.44-2.4Z"/>
        <path d="M950.19,300.28v-28.23h1.98v28.23h-1.98Z"/>
        <path d="M977.94,293.96c-.29.58-.69,1.07-1.19,1.48-.5.41-1.09.72-1.77.93-.68.21-1.42.32-2.21.32-1.14,0-2.29-.21-3.45-.62-1.16-.42-2.18-.98-3.08-1.69l1.19-1.68c.85.65,1.74,1.15,2.67,1.49.92.35,1.85.52,2.79.52s1.74-.22,2.35-.67c.61-.45.91-1.06.91-1.83v-.06c0-.39-.11-.72-.32-1.01-.21-.28-.5-.53-.87-.75-.37-.21-.79-.4-1.26-.56-.48-.16-.97-.32-1.48-.46-.61-.18-1.22-.38-1.84-.59-.62-.21-1.18-.48-1.68-.81-.5-.32-.9-.73-1.22-1.22-.32-.49-.47-1.1-.47-1.83v-.06c0-.67.13-1.29.4-1.84.26-.56.64-1.04,1.11-1.43.48-.4,1.05-.7,1.71-.92.66-.21,1.38-.32,2.15-.32.98,0,1.96.16,2.96.47,1,.32,1.9.74,2.71,1.27l-1.07,1.77c-.73-.47-1.5-.84-2.3-1.11-.8-.27-1.59-.41-2.36-.41-.93,0-1.68.22-2.22.66-.55.44-.82.98-.82,1.63v.06c0,.37.11.69.33.96s.52.51.9.72.81.39,1.3.55c.49.16,1,.33,1.52.49.61.18,1.21.39,1.81.61.6.22,1.14.51,1.63.85.49.35.88.76,1.17,1.25.29.49.44,1.09.44,1.8v.06c0,.75-.15,1.42-.44,2Z"/>
        <path d="M985.9,282.8c-.76.21-1.51.49-2.24.84l-.7-1.92c.87-.41,1.76-.73,2.65-.96.89-.23,1.92-.35,3.08-.35,2.15,0,3.81.53,4.97,1.6,1.16,1.07,1.74,2.65,1.74,4.74v9.63h-2.26v-2.38c-.55.71-1.29,1.34-2.21,1.89-.92.55-2.09.82-3.49.82-.73,0-1.45-.1-2.15-.3s-1.33-.51-1.89-.93c-.56-.42-1.01-.93-1.34-1.54-.33-.61-.5-1.33-.5-2.17s.16-1.57.49-2.21c.32-.64.79-1.17,1.39-1.6s1.31-.75,2.13-.98c.82-.22,1.73-.33,2.73-.33s1.9.06,2.65.18c.75.12,1.48.29,2.19.49v-.55c0-1.42-.41-2.49-1.23-3.22s-1.98-1.08-3.46-1.08c-.93,0-1.78.11-2.55.32ZM985.15,289.28c-.79.59-1.19,1.39-1.19,2.41,0,.51.11.96.32,1.34.21.39.5.72.87.99.36.27.78.48,1.26.62.48.14.98.21,1.5.21.73,0,1.41-.11,2.05-.32.64-.21,1.2-.51,1.67-.88.48-.38.85-.82,1.12-1.34.27-.52.41-1.09.41-1.72v-1.52c-.59-.16-1.26-.31-2.02-.46-.76-.14-1.62-.21-2.6-.21-1.48,0-2.61.29-3.4.88Z"/>
        <path d="M1011.58,280.62h2.32v15.76h-2.32v-2.74c-.53.85-1.22,1.58-2.07,2.18-.85.6-1.96.9-3.32.9-.96,0-1.8-.15-2.55-.46s-1.37-.74-1.89-1.3c-.52-.56-.92-1.22-1.19-2s-.41-1.63-.41-2.56v-9.79h2.35v9.21c0,1.46.38,2.62,1.13,3.47s1.83,1.28,3.23,1.28c.67,0,1.3-.12,1.88-.35.58-.23,1.08-.57,1.49-1.01.42-.44.75-.96.99-1.57.24-.61.37-1.28.37-2.01v-9.02ZM1005.88,278.33l2.9-4.42,2.44,1.13-3.44,3.29h-1.89Z"/>
        <path d="M1031.82,296.38v-3.17c-.33.47-.69.91-1.08,1.34s-.84.8-1.33,1.13c-.49.33-1.03.58-1.63.76-.6.18-1.26.27-2,.27-.96,0-1.88-.18-2.77-.55-.89-.37-1.7-.9-2.41-1.6-.71-.7-1.28-1.56-1.71-2.58-.43-1.02-.64-2.17-.64-3.48s.21-2.46.64-3.47,1-1.88,1.71-2.58c.71-.7,1.51-1.24,2.41-1.62.89-.38,1.82-.56,2.77-.56.73,0,1.4.09,2.01.27.61.18,1.16.43,1.65.73.49.3.93.66,1.33,1.07s.75.83,1.05,1.28v-9.51h2.35v22.25h-2.35ZM1031.44,286c-.32-.75-.74-1.39-1.28-1.91-.54-.53-1.15-.94-1.83-1.23-.68-.29-1.39-.44-2.12-.44-.77,0-1.49.14-2.16.41-.67.27-1.25.67-1.75,1.18s-.89,1.15-1.19,1.91c-.29.76-.44,1.61-.44,2.56s.15,1.77.44,2.52c.29.75.7,1.39,1.2,1.93.51.54,1.1.95,1.77,1.23.67.28,1.38.42,2.13.42s1.44-.15,2.12-.44c.68-.29,1.29-.7,1.83-1.23.54-.53.96-1.17,1.28-1.93.31-.76.47-1.59.47-2.5s-.16-1.74-.47-2.49Z"/>
        <path d="M1041.45,291.64c.33.66.74,1.22,1.25,1.68.51.46,1.08.8,1.71,1.04.63.23,1.29.35,1.98.35,1.1,0,2.04-.2,2.82-.61.78-.41,1.5-.95,2.15-1.62l1.46,1.31c-.79.89-1.7,1.61-2.71,2.15-1.02.54-2.28.81-3.78.81-1.08,0-2.09-.2-3.05-.59s-1.79-.96-2.51-1.68c-.72-.72-1.29-1.59-1.71-2.61-.42-1.02-.63-2.13-.63-3.35,0-1.14.19-2.21.56-3.22s.9-1.88,1.57-2.62c.67-.74,1.47-1.33,2.39-1.75.92-.43,1.94-.64,3.03-.64,1.16,0,2.2.22,3.11.66.92.44,1.69,1.03,2.32,1.78.63.75,1.11,1.64,1.43,2.65.32,1.02.49,2.1.49,3.26v.34c0,.12,0,.25-.03.4h-12.47c.08.85.28,1.61.61,2.27ZM1050.94,287.63c-.06-.71-.21-1.39-.44-2.04s-.56-1.22-.97-1.71c-.41-.49-.92-.88-1.51-1.17-.6-.29-1.29-.44-2.08-.44-.69,0-1.32.14-1.91.41s-1.1.65-1.54,1.13c-.44.48-.81,1.04-1.09,1.69s-.46,1.36-.54,2.13h10.09Z"/>
        <path d="M1080.06,282.21c.36-.39.76-.72,1.2-1.01.45-.28.95-.51,1.51-.67.56-.16,1.18-.24,1.87-.24,1.83,0,3.26.56,4.3,1.69s1.55,2.68,1.55,4.65v9.75h-2.35v-9.21c0-1.52-.36-2.7-1.08-3.52s-1.72-1.23-3-1.23c-.59,0-1.15.11-1.68.32-.53.21-.99.53-1.39.95-.4.42-.71.93-.95,1.54s-.35,1.3-.35,2.07v9.08h-2.32v-9.27c0-1.48-.36-2.64-1.08-3.46-.72-.82-1.71-1.23-2.97-1.23-.63,0-1.21.12-1.74.37-.53.24-.99.59-1.39,1.04-.4.45-.71.97-.93,1.57-.22.6-.34,1.26-.34,2v8.99h-2.35v-15.76h2.35v2.65c.26-.39.55-.76.87-1.13.31-.37.67-.69,1.08-.96.41-.27.86-.49,1.37-.66.51-.16,1.1-.24,1.77-.24,1.28,0,2.34.3,3.17.9.83.6,1.46,1.35,1.89,2.24.28-.43.6-.83.96-1.22Z"/>
        <path d="M1097.64,291.64c.33.66.74,1.22,1.25,1.68.51.46,1.08.8,1.71,1.04.63.23,1.29.35,1.98.35,1.1,0,2.04-.2,2.82-.61.78-.41,1.5-.95,2.15-1.62l1.46,1.31c-.79.89-1.7,1.61-2.71,2.15-1.02.54-2.28.81-3.78.81-1.08,0-2.09-.2-3.05-.59s-1.79-.96-2.51-1.68c-.72-.72-1.29-1.59-1.71-2.61-.42-1.02-.63-2.13-.63-3.35,0-1.14.19-2.21.56-3.22s.9-1.88,1.57-2.62c.67-.74,1.47-1.33,2.39-1.75.92-.43,1.94-.64,3.03-.64,1.16,0,2.2.22,3.11.66.92.44,1.69,1.03,2.32,1.78.63.75,1.11,1.64,1.43,2.65.32,1.02.49,2.1.49,3.26v.34c0,.12,0,.25-.03.4h-12.47c.08.85.28,1.61.61,2.27ZM1107.12,287.63c-.06-.71-.21-1.39-.44-2.04s-.56-1.22-.97-1.71c-.41-.49-.92-.88-1.51-1.17-.6-.29-1.29-.44-2.08-.44-.69,0-1.32.14-1.91.41s-1.1.65-1.54,1.13c-.44.48-.81,1.04-1.09,1.69s-.46,1.36-.54,2.13h10.09Z"/>
        <path d="M1115.99,296.38h-2.35v-15.76h2.35v2.74c.53-.85,1.22-1.58,2.07-2.18s1.96-.9,3.32-.9c.96,0,1.8.15,2.55.46.74.3,1.37.74,1.89,1.3.52.56.92,1.22,1.19,2s.41,1.63.41,2.56v9.79h-2.35v-9.21c0-1.46-.38-2.62-1.13-3.48-.75-.85-1.83-1.28-3.23-1.28-.67,0-1.3.12-1.88.35-.58.23-1.08.57-1.51,1.01-.43.44-.76.96-.99,1.57-.23.61-.35,1.28-.35,2.01v9.02Z"/>
        <path d="M1135.59,291.9c0,.98.24,1.66.73,2.04.49.39,1.13.58,1.92.58.41,0,.79-.04,1.14-.12s.74-.22,1.14-.43v2.01c-.41.22-.84.39-1.3.5-.46.11-.97.17-1.54.17-.63,0-1.22-.08-1.77-.24-.55-.16-1.02-.42-1.42-.78-.4-.36-.71-.82-.93-1.39-.22-.57-.34-1.25-.34-2.04v-9.51h-2.19v-2.07h2.19v-4.75h2.35v4.75h5v2.07h-5v9.21Z"/>
        <path d="M1147.89,282.8c-.76.21-1.51.49-2.24.84l-.7-1.92c.87-.41,1.76-.73,2.65-.96.89-.23,1.92-.35,3.08-.35,2.15,0,3.81.53,4.97,1.6,1.16,1.07,1.74,2.65,1.74,4.74v9.63h-2.26v-2.38c-.55.71-1.29,1.34-2.21,1.89-.92.55-2.09.82-3.49.82-.73,0-1.45-.1-2.15-.3s-1.33-.51-1.89-.93c-.56-.42-1.01-.93-1.34-1.54-.33-.61-.5-1.33-.5-2.17s.16-1.57.49-2.21c.32-.64.79-1.17,1.39-1.6s1.31-.75,2.13-.98c.82-.22,1.73-.33,2.73-.33s1.9.06,2.65.18c.75.12,1.48.29,2.19.49v-.55c0-1.42-.41-2.49-1.23-3.22s-1.98-1.08-3.46-1.08c-.93,0-1.78.11-2.55.32ZM1147.14,289.28c-.79.59-1.19,1.39-1.19,2.41,0,.51.11.96.32,1.34.21.39.5.72.87.99.36.27.78.48,1.26.62.48.14.98.21,1.5.21.73,0,1.41-.11,2.05-.32.64-.21,1.2-.51,1.67-.88.48-.38.85-.82,1.12-1.34.27-.52.41-1.09.41-1.72v-1.52c-.59-.16-1.26-.31-2.02-.46-.76-.14-1.62-.21-2.6-.21-1.48,0-2.61.29-3.4.88Z"/>
        <path d="M1162.6,296.38v-22.25h2.35v22.25h-2.35Z"/>
      </g>
      <g>
        <path class="cls-6" d="M832.03,251.78c-3.83,0-6.76-1.06-8.8-3.19-2.04-2.12-3.06-5.06-3.06-8.8v-67.23c0-3.91,1.04-6.89,3.12-8.93,2.08-2.04,5.04-3.06,8.87-3.06h31.38c10.12,0,17.94,2.62,23.47,7.85,5.53,5.23,8.29,12.44,8.29,21.62s-2.76,16.39-8.29,21.62c-5.53,5.23-13.35,7.85-23.47,7.85h-19.9v20.28c0,3.74-1,6.68-3,8.8-2,2.12-4.87,3.19-8.61,3.19ZM843.64,201.52h15.69c4.51,0,7.91-.96,10.21-2.87,2.3-1.91,3.44-4.78,3.44-8.61s-1.15-6.7-3.44-8.61c-2.3-1.91-5.7-2.87-10.21-2.87h-15.69v22.96Z"/>
        <path class="cls-6" d="M908.7,251.78c-3.83,0-6.76-1.06-8.8-3.19-2.04-2.12-3.06-5.06-3.06-8.8v-67.23c0-3.91,1.04-6.89,3.12-8.93,2.08-2.04,5.04-3.06,8.87-3.06h31.38c10.12,0,17.94,2.49,23.47,7.46,5.53,4.98,8.29,11.89,8.29,20.73,0,5.79-1.23,10.76-3.7,14.93-2.47,4.17-6.08,7.38-10.84,9.63-4.76,2.25-10.5,3.38-17.22,3.38l.89-2.3h6.25c3.57,0,6.76.87,9.57,2.62,2.81,1.74,5.14,4.4,7.02,7.97l6.25,11.48c1.45,2.55,2.11,4.98,1.98,7.27-.13,2.3-1.02,4.21-2.68,5.74-1.66,1.53-4.23,2.3-7.72,2.3-3.23,0-5.89-.68-7.97-2.04-2.08-1.36-3.93-3.49-5.55-6.38l-11.61-21.56c-1.02-1.79-2.32-3.04-3.89-3.76-1.57-.72-3.38-1.08-5.42-1.08h-7.02v22.84c0,3.74-1,6.68-3,8.8-2,2.12-4.87,3.19-8.61,3.19ZM920.31,200.37h15.56c4.51,0,7.93-.89,10.27-2.68,2.34-1.79,3.51-4.51,3.51-8.17s-1.17-6.51-3.51-8.29c-2.34-1.79-5.76-2.68-10.27-2.68h-15.56v21.81Z"/>
        <path class="cls-6" d="M989.2,251.78c-3.83,0-6.76-1.06-8.8-3.19-2.04-2.12-3.06-5.1-3.06-8.93v-68.25c0-3.83,1.02-6.8,3.06-8.93,2.04-2.12,4.98-3.19,8.8-3.19s6.51,1.06,8.55,3.19c2.04,2.13,3.06,5.1,3.06,8.93v68.25c0,3.83-1,6.81-3,8.93-2,2.12-4.87,3.19-8.61,3.19Z"/>
        <path class="cls-6" d="M1018.41,251.78c-3.4,0-6.02-.96-7.85-2.87-1.83-1.91-2.74-4.57-2.74-7.97v-70.8c0-3.4.98-6.06,2.93-7.97,1.96-1.91,4.68-2.87,8.16-2.87,3.06,0,5.46.6,7.21,1.79,1.74,1.19,3.34,3.15,4.78,5.87l27.3,49.24h-4.34l27.3-49.24c1.53-2.72,3.17-4.68,4.91-5.87,1.74-1.19,4.06-1.79,6.95-1.79,3.49,0,6.14.96,7.97,2.87,1.83,1.91,2.74,4.57,2.74,7.97v70.8c0,3.4-.89,6.06-2.68,7.97-1.79,1.91-4.42,2.87-7.91,2.87s-6.02-.96-7.85-2.87c-1.83-1.91-2.74-4.57-2.74-7.97v-43.88h2.68l-20.67,35.72c-1.11,1.87-2.32,3.28-3.64,4.21-1.32.94-3.08,1.4-5.29,1.4s-3.89-.47-5.29-1.4c-1.4-.93-2.66-2.34-3.76-4.21l-20.67-35.85h3.06v44.01c0,3.4-.89,6.06-2.68,7.97-1.79,1.91-4.42,2.87-7.91,2.87Z"/>
        <path class="cls-6" d="M1123.02,250.51c-4,0-7.04-1.04-9.12-3.13-2.08-2.08-3.12-5.12-3.12-9.12v-65.44c0-4,1.04-7.04,3.12-9.12s5.12-3.13,9.12-3.13h43.37c2.89,0,5.12.77,6.7,2.3,1.57,1.53,2.36,3.74,2.36,6.63s-.79,5.25-2.36,6.83-3.81,2.36-6.7,2.36h-33.3v17.09h30.36c2.98,0,5.23.77,6.76,2.3,1.53,1.53,2.3,3.79,2.3,6.76s-.76,5.12-2.3,6.7c-1.53,1.58-3.79,2.36-6.76,2.36h-30.36v18.5h33.3c2.89,0,5.12.79,6.7,2.36,1.57,1.57,2.36,3.81,2.36,6.7s-.79,5.23-2.36,6.76c-1.57,1.53-3.81,2.3-6.7,2.3h-43.37Z"/>
      </g>
      <g>
        <path class="cls-4" d="M460.43,252.04c-3.49,0-7.06-.25-10.72-.76-3.66-.51-7.17-1.23-10.52-2.17-3.36-.94-6.36-2.04-8.99-3.32-2.3-1.1-3.91-2.59-4.85-4.46-.94-1.87-1.28-3.8-1.02-5.8.25-2,.98-3.78,2.17-5.36,1.19-1.57,2.76-2.64,4.72-3.19,1.96-.55,4.17-.28,6.63.83,3.23,1.53,6.89,2.74,10.97,3.64,4.08.89,7.95,1.34,11.61,1.34,5.53,0,9.42-.79,11.67-2.36,2.25-1.57,3.38-3.42,3.38-5.55,0-1.96-.79-3.53-2.36-4.72-1.57-1.19-4.36-2.21-8.36-3.06l-14.93-3.19c-8.25-1.79-14.35-4.78-18.31-8.99-3.95-4.21-5.93-9.67-5.93-16.39,0-4.51.94-8.55,2.81-12.12,1.87-3.57,4.47-6.63,7.78-9.19s7.31-4.55,11.99-6c4.68-1.45,9.82-2.17,15.44-2.17,4.42,0,8.91.51,13.46,1.53,4.55,1.02,8.48,2.51,11.8,4.46,1.96,1.02,3.38,2.45,4.27,4.27.89,1.83,1.23,3.68,1.02,5.55-.21,1.87-.89,3.53-2.04,4.98-1.15,1.45-2.68,2.4-4.59,2.87-1.91.47-4.19.15-6.83-.96-2.55-1.1-5.36-1.96-8.42-2.55-3.06-.59-6.04-.89-8.93-.89-3.15,0-5.83.38-8.04,1.15-2.21.77-3.89,1.83-5.04,3.19-1.15,1.36-1.72,2.93-1.72,4.72s.77,3.3,2.3,4.53c1.53,1.23,4.25,2.23,8.16,3l14.8,3.19c8.25,1.79,14.42,4.74,18.5,8.87,4.08,4.13,6.12,9.46,6.12,16.01,0,4.42-.89,8.4-2.68,11.93-1.79,3.53-4.36,6.59-7.72,9.19-3.36,2.59-7.36,4.57-11.99,5.93-4.64,1.36-9.85,2.04-15.63,2.04Z"/>
        <path class="cls-4" d="M533.79,252.04c-6.97,0-13.06-1.32-18.24-3.95-5.19-2.64-9.23-6.44-12.12-11.42-2.89-4.98-4.34-10.82-4.34-17.54,0-5.1.81-9.67,2.42-13.71,1.61-4.04,3.95-7.5,7.02-10.4,3.06-2.89,6.72-5.08,10.97-6.57,4.25-1.49,9.01-2.23,14.29-2.23,6.97,0,13.05,1.32,18.24,3.96,5.19,2.64,9.21,6.42,12.06,11.35,2.85,4.93,4.27,10.8,4.27,17.61,0,5.1-.81,9.65-2.42,13.65-1.62,4-3.95,7.46-7.02,10.4-3.06,2.93-6.72,5.15-10.97,6.63-4.25,1.49-8.97,2.23-14.16,2.23ZM533.79,235.07c2.3,0,4.32-.53,6.06-1.59,1.74-1.06,3.13-2.78,4.15-5.17,1.02-2.38,1.53-5.44,1.53-9.18,0-5.7-1.11-9.8-3.32-12.31-2.21-2.51-5.02-3.76-8.42-3.76-2.3,0-4.34.55-6.12,1.66-1.79,1.11-3.19,2.83-4.21,5.17-1.02,2.34-1.53,5.42-1.53,9.25,0,5.61,1.1,9.68,3.32,12.18,2.21,2.51,5.06,3.76,8.55,3.76ZM541.95,178.43c-1.19,1.62-2.62,2.51-4.27,2.68-1.66.17-3.21-.15-4.66-.96-1.45-.81-2.49-1.93-3.13-3.38-.64-1.44-.49-3.1.45-4.97l8.29-16.84c1.02-2.12,2.38-3.49,4.08-4.08,1.7-.59,3.44-.64,5.23-.13,1.79.51,3.32,1.4,4.59,2.68,1.28,1.28,2.06,2.76,2.36,4.46.3,1.7-.23,3.44-1.59,5.23l-11.35,15.31Z"/>
        <path class="cls-4" d="M613.77,252.04c-4.76,0-9.06-1.19-12.88-3.57-3.83-2.38-6.34-5.49-7.53-9.31l1.4-5.23v6.38c0,3.66-.96,6.49-2.87,8.48s-4.66,3-8.23,3-6.44-1-8.36-3-2.87-4.83-2.87-8.48v-69.53c0-3.66.96-6.48,2.87-8.48,1.91-2,4.74-3,8.48-3s6.36,1,8.36,3c2,2,3,4.83,3,8.48v27.43h-1.66c1.36-3.49,3.91-6.36,7.65-8.61,3.74-2.25,7.95-3.38,12.63-3.38,5.44,0,10.21,1.34,14.29,4.02,4.08,2.68,7.29,6.44,9.63,11.29,2.34,4.85,3.51,10.72,3.51,17.61s-1.15,12.55-3.44,17.48c-2.3,4.93-5.53,8.74-9.7,11.42-4.17,2.68-8.93,4.02-14.29,4.02ZM606.63,235.07c2.29,0,4.31-.53,6.06-1.59,1.74-1.06,3.12-2.78,4.15-5.17,1.02-2.38,1.53-5.44,1.53-9.18,0-5.7-1.11-9.8-3.32-12.31-2.21-2.51-5.02-3.76-8.42-3.76-2.38,0-4.46.55-6.25,1.66-1.79,1.11-3.17,2.83-4.15,5.17-.98,2.34-1.47,5.42-1.47,9.25,0,5.61,1.1,9.68,3.32,12.18,2.21,2.51,5.06,3.76,8.55,3.76Z"/>
        <path class="cls-4" d="M656.76,251.78c-3.74,0-6.61-1-8.61-3-2-2-3-4.83-3-8.48v-42.35c0-3.66.96-6.48,2.87-8.48,1.91-2,4.66-3,8.23-3s6.19,1,8.1,3c1.91,2,2.87,4.83,2.87,8.48v5.23h-1.28c.85-5.1,3.04-9.16,6.57-12.18,3.53-3.02,7.93-4.61,13.2-4.78,2.47-.08,4.32.55,5.55,1.91,1.23,1.36,1.89,3.83,1.98,7.4,0,3.06-.64,5.46-1.91,7.21-1.28,1.74-3.66,2.83-7.14,3.25l-3.06.25c-4.42.43-7.7,1.68-9.82,3.76-2.13,2.08-3.19,5.17-3.19,9.25v21.05c0,3.66-.96,6.49-2.87,8.48-1.91,2-4.74,3-8.48,3Z"/>
        <path class="cls-4" d="M705.49,177.54c-4.08,0-7.23-.93-9.44-2.81-2.21-1.87-3.32-4.55-3.32-8.04s1.1-6.29,3.32-8.16c2.21-1.87,5.36-2.81,9.44-2.81s7.1.94,9.31,2.81c2.21,1.87,3.32,4.59,3.32,8.16s-1.11,6.17-3.32,8.04c-2.21,1.87-5.32,2.81-9.31,2.81ZM705.49,251.53c-3.74,0-6.57-1.04-8.48-3.13-1.91-2.08-2.87-5.12-2.87-9.12v-40.44c0-4,.96-7.04,2.87-9.12,1.91-2.08,4.74-3.13,8.48-3.13s6.36,1.04,8.36,3.13c2,2.08,3,5.12,3,9.12v40.44c0,4-.98,7.04-2.93,9.12-1.96,2.08-4.76,3.13-8.42,3.13Z"/>
        <path class="cls-4" d="M755.37,252.04c-6.97,0-13.06-1.32-18.24-3.95-5.19-2.64-9.23-6.44-12.12-11.42-2.89-4.98-4.34-10.82-4.34-17.54,0-5.1.81-9.67,2.42-13.71,1.62-4.04,3.96-7.5,7.02-10.4,3.06-2.89,6.72-5.08,10.97-6.57,4.25-1.49,9.01-2.23,14.29-2.23,6.97,0,13.05,1.32,18.24,3.96,5.19,2.64,9.21,6.42,12.06,11.35,2.85,4.93,4.27,10.8,4.27,17.61,0,5.1-.81,9.65-2.42,13.65-1.62,4-3.95,7.46-7.02,10.4-3.06,2.93-6.72,5.15-10.97,6.63-4.25,1.49-8.97,2.23-14.16,2.23ZM755.37,235.07c2.3,0,4.32-.53,6.06-1.59,1.74-1.06,3.12-2.78,4.15-5.17,1.02-2.38,1.53-5.44,1.53-9.18,0-5.7-1.11-9.8-3.32-12.31-2.21-2.51-5.02-3.76-8.42-3.76-2.3,0-4.34.55-6.12,1.66-1.79,1.11-3.19,2.83-4.21,5.17-1.02,2.34-1.53,5.42-1.53,9.25,0,5.61,1.1,9.68,3.32,12.18,2.21,2.51,5.06,3.76,8.55,3.76Z"/>
      </g>
    </g>
  </g>
</svg>