<?xml version="1.0" encoding="UTF-8"?>
<svg id="Camada_2" xmlns="http://www.w3.org/2000/svg" viewBox="0 0 959.84 149.55">
  <defs>
    <style>
      .cls-1 {
        fill: #231f20;
      }

      .cls-2 {
        fill: #50b848;
      }

      .cls-3 {
        fill: #005baa;
      }
    </style>
  </defs>
  <g id="Logo">
    <g>
      <g>
        <path class="cls-3" d="M126.07,106.84c-17.44,16.64-37.13,30.42-43.38,34.67-6.26-4.25-25.94-18.03-43.38-34.67l-1.5,8.73c18.01,16.57,36.88,29.49,41.72,32.72.18.12.5.33.88.58,1.38.91,3.18.91,4.56,0,.4-.26.75-.49.94-.62,4.93-3.3,23.72-16.18,41.66-32.68l-1.5-8.73Z"/>
        <path class="cls-3" d="M82.68,53.43c-7.37,0-13.37-6-13.37-13.37s6-13.37,13.37-13.37,13.37,6,13.37,13.37-6,13.37-13.37,13.37ZM82.68,33.94c-3.38,0-6.13,2.75-6.13,6.13s2.75,6.12,6.13,6.12,6.12-2.75,6.12-6.12-2.75-6.13-6.12-6.13Z"/>
        <path class="cls-3" d="M48.14,66.73c-6.78,0-12.29-5.51-12.29-12.29s5.51-12.29,12.29-12.29,12.29,5.51,12.29,12.29-5.51,12.29-12.29,12.29ZM48.14,49.4c-2.78,0-5.04,2.26-5.04,5.04s2.26,5.04,5.04,5.04,5.04-2.26,5.04-5.04-2.26-5.04-5.04-5.04Z"/>
        <path class="cls-3" d="M117.23,66.73c-6.78,0-12.29-5.51-12.29-12.29s5.51-12.29,12.29-12.29,12.29,5.51,12.29,12.29-5.51,12.29-12.29,12.29ZM117.23,49.4c-2.78,0-5.04,2.26-5.04,5.04s2.26,5.04,5.04,5.04,5.04-2.26,5.04-5.04-2.26-5.04-5.04-5.04Z"/>
        <path class="cls-2" d="M163.99,38.12c-3.07-12.86-11.25-23.67-23.67-31.26-1.15-.7-11.63-6.86-26.18-6.86-11.52,0-22.09,3.79-31.46,11.26C73.32,3.79,62.75,0,51.23,0c-14.56,0-25.04,6.15-26.18,6.86C12.63,14.45,4.44,25.26,1.38,38.12c-3.4,14.27-.41,30.93,8.02,44.58,7.92,12.83,18,22.54,18.42,22.95l5.02,4.81,1.17-6.85c2.46-14.36,10.14-24.79,18.27-24.79,2.4,0,4.8.87,7.05,2.52-1.92,6.17-2.77,12.95-2.31,18.58,1.22,14.68,9.79,23.3,10.15,23.66h0c1.87,1.84,5.01,1.2,6.01-1.22h0c.28-.68,6.78-16.85,1.32-31.57-1.65-4.44-3.9-8.35-6.58-11.45,2.18-5.02,6.86-12.86,14.76-12.86s12.58,7.84,14.76,12.86c-2.68,3.1-4.93,7.01-6.58,11.45-5.46,14.72,1.04,30.89,1.32,31.57h0c1,2.43,4.14,3.07,6.01,1.22h0c.36-.36,8.93-8.98,10.15-23.66.47-5.63-.39-12.41-2.31-18.58,2.24-1.66,4.65-2.52,7.05-2.52,8.12,0,15.81,10.42,18.27,24.79l1.17,6.85,5.02-4.81c.43-.41,10.5-10.12,18.42-22.95,8.43-13.65,11.43-30.31,8.02-44.58ZM68.33,112.62c-1.74-3.22-3.49-7.71-3.96-13.3-.28-3.37.02-7.26.8-11.12.91,1.57,1.72,3.31,2.41,5.16,2.48,6.69,1.82,14.05.75,19.26ZM100.99,99.32c-.46,5.59-2.21,10.08-3.96,13.3-1.08-5.21-1.74-12.56.75-19.26.69-1.86,1.5-3.59,2.41-5.16.79,3.87,1.08,7.75.8,11.12ZM149.69,78.82c-4.2,6.8-9.13,12.75-12.64,16.66-4.28-14.63-13.42-24.04-23.96-24.04-2.75,0-5.44.64-8,1.88-.41.2-1.22.65-1.82,1-.25-.5-.67-1.29-.84-1.6-4.79-8.73-11.76-13.61-19.74-13.61s-14.95,4.88-19.74,13.61c-.17.31-.6,1.11-.84,1.6-.6-.35-1.41-.8-1.82-1-2.56-1.24-5.25-1.88-8-1.88-10.54,0-19.68,9.41-23.96,24.04-3.51-3.91-8.44-9.86-12.64-16.66-7.42-12.01-10.08-26.59-7.12-38.99,2.64-11.06,9.48-20.04,20.34-26.68,3.5-2.14,12.15-5.77,22.33-5.77s20.44,3.86,29.01,11.46h0c1.4,1.24,3.5,1.24,4.9,0h0c8.57-7.61,18.33-11.46,29.01-11.46s18.83,3.63,22.33,5.77c10.86,6.64,17.7,15.62,20.34,26.68,2.96,12.4.3,26.97-7.12,38.99Z"/>
      </g>
      <g>
        <g>
          <path class="cls-3" d="M204.27,121.97v-60.88h46.01v11.31h-32v38.27h33.14v11.31h-47.14ZM217.23,96.58v-10.96h29.31v10.96h-29.31Z"/>
          <path class="cls-3" d="M278.28,123.02c-4.87,0-9.54-.65-14-1.96-4.46-1.3-8.06-3-10.78-5.09l4.78-10.61c2.61,1.86,5.7,3.38,9.26,4.57,3.57,1.19,7.17,1.78,10.83,1.78,2.78,0,5.03-.27,6.74-.83,1.71-.55,2.97-1.32,3.78-2.3.81-.99,1.22-2.12,1.22-3.39,0-1.62-.64-2.91-1.91-3.87-1.28-.96-2.96-1.74-5.04-2.35-2.09-.61-4.39-1.19-6.91-1.74-2.52-.55-5.04-1.23-7.57-2.04-2.52-.81-4.83-1.85-6.91-3.13-2.09-1.27-3.78-2.96-5.09-5.04-1.3-2.09-1.96-4.75-1.96-8,0-3.48.94-6.65,2.83-9.52,1.88-2.87,4.72-5.16,8.52-6.87,3.8-1.71,8.57-2.57,14.31-2.57,3.83,0,7.59.45,11.31,1.35,3.71.9,6.99,2.25,9.83,4.04l-4.35,10.7c-2.84-1.62-5.68-2.83-8.52-3.61-2.84-.78-5.62-1.17-8.35-1.17s-4.96.32-6.7.96c-1.74.64-2.99,1.46-3.74,2.48-.75,1.02-1.13,2.19-1.13,3.52,0,1.57.64,2.83,1.91,3.78,1.28.96,2.96,1.73,5.04,2.3,2.09.58,4.39,1.16,6.91,1.74,2.52.58,5.04,1.25,7.57,2,2.52.75,4.83,1.77,6.91,3.04,2.09,1.28,3.78,2.96,5.09,5.04,1.3,2.09,1.96,4.73,1.96,7.91,0,3.42-.96,6.55-2.87,9.39-1.91,2.84-4.77,5.13-8.57,6.87-3.8,1.74-8.6,2.61-14.39,2.61Z"/>
          <path class="cls-3" d="M309.41,121.97v-60.88h26.35c5.45,0,10.15.88,14.09,2.65,3.94,1.77,6.99,4.3,9.13,7.61,2.14,3.3,3.22,7.25,3.22,11.83s-1.07,8.44-3.22,11.74c-2.15,3.3-5.19,5.84-9.13,7.61-3.94,1.77-8.64,2.65-14.09,2.65h-18.52l6.26-6.35v23.13h-14.09ZM323.5,100.4l-6.26-6.7h17.74c4.35,0,7.59-.93,9.74-2.78,2.14-1.85,3.22-4.44,3.22-7.74s-1.07-5.97-3.22-7.83c-2.15-1.85-5.39-2.78-9.74-2.78h-17.74l6.26-6.7v34.53Z"/>
          <path class="cls-3" d="M367.85,121.97v-60.88h46.01v11.31h-32v38.27h33.14v11.31h-47.14ZM380.81,96.58v-10.96h29.31v10.96h-29.31Z"/>
          <path class="cls-3" d="M421.86,121.97v-60.88h26c8.46,0,15.05,1.96,19.74,5.87s7.04,9.32,7.04,16.22c0,4.52-1.07,8.42-3.22,11.7-2.15,3.28-5.19,5.78-9.13,7.52-3.94,1.74-8.64,2.61-14.09,2.61h-18.52l6.26-6.17v23.13h-14.09ZM435.95,100.4l-6.26-6.61h17.74c4.35,0,7.59-.94,9.74-2.83,2.14-1.88,3.22-4.48,3.22-7.78s-1.07-5.97-3.22-7.83c-2.15-1.85-5.39-2.78-9.74-2.78h-17.74l6.26-6.7v34.53ZM460.56,121.97l-15.22-22.09h15.04l15.39,22.09h-15.22Z"/>
          <path class="cls-3" d="M473.43,121.97l27.13-60.88h13.92l27.22,60.88h-14.79l-22.26-53.75h5.57l-22.35,53.75h-14.44ZM487,108.93l3.74-10.7h31.31l3.83,10.7h-38.88Z"/>
          <path class="cls-3" d="M543.7,121.97v-60.88h11.65l35.92,43.83h-5.65v-43.83h13.92v60.88h-11.57l-36-43.83h5.65v43.83h-13.91Z"/>
          <path class="cls-3" d="M638.75,123.02c-4.7,0-9.06-.77-13.09-2.3-4.03-1.54-7.52-3.72-10.48-6.57-2.96-2.84-5.26-6.17-6.91-10s-2.48-8.03-2.48-12.61.83-8.78,2.48-12.61,3.97-7.16,6.96-10c2.99-2.84,6.48-5.03,10.48-6.57,4-1.54,8.38-2.3,13.13-2.3,5.28,0,10.04.91,14.31,2.74,4.26,1.83,7.84,4.51,10.74,8.04l-9.04,8.35c-2.09-2.38-4.41-4.16-6.96-5.35-2.55-1.19-5.33-1.78-8.35-1.78-2.84,0-5.45.46-7.83,1.39-2.38.93-4.44,2.26-6.17,4-1.74,1.74-3.09,3.8-4.04,6.17-.96,2.38-1.44,5.02-1.44,7.91s.48,5.54,1.44,7.91c.96,2.38,2.3,4.44,4.04,6.17s3.8,3.07,6.17,4c2.38.93,4.99,1.39,7.83,1.39,3.01,0,5.8-.59,8.35-1.78,2.55-1.19,4.87-3,6.96-5.44l9.04,8.35c-2.9,3.54-6.48,6.23-10.74,8.09-4.26,1.85-9.06,2.78-14.39,2.78ZM635.45,142.15c-1.51,0-2.97-.17-4.39-.52-1.42-.35-2.65-.78-3.7-1.3l2.09-5.83c.87.4,1.77.72,2.7.96.93.23,1.91.35,2.96.35,1.62,0,2.78-.26,3.48-.78.7-.52,1.04-1.19,1.04-2,0-.75-.33-1.36-1-1.83-.67-.46-1.75-.7-3.26-.7h-2.96l2.26-9.22h7.22l-1.22,5.04c2.61.29,4.52,1.12,5.74,2.48,1.22,1.36,1.83,2.94,1.83,4.74,0,2.61-1.16,4.7-3.48,6.26-2.32,1.57-5.42,2.35-9.31,2.35Z"/>
          <path class="cls-3" d="M659.02,121.97l27.13-60.88h13.92l27.22,60.88h-14.79l-22.26-53.75h5.57l-22.35,53.75h-14.44ZM672.59,108.93l3.74-10.7h31.31l3.83,10.7h-38.88Z"/>
          <path class="cls-2" d="M767.81,121.97l-26.26-60.88h15.22l22.96,53.92h-8.96l23.31-53.92h14l-26.35,60.88h-13.92Z"/>
          <path class="cls-2" d="M808.78,121.97v-60.88h14.09v60.88h-14.09Z"/>
          <path class="cls-2" d="M832.95,121.97v-60.88h27.66c6.61,0,12.44,1.26,17.48,3.78,5.04,2.52,8.99,6.04,11.83,10.57,2.84,4.52,4.26,9.89,4.26,16.09s-1.42,11.5-4.26,16.05c-2.84,4.55-6.78,8.09-11.83,10.61s-10.87,3.78-17.48,3.78h-27.66ZM847.04,110.4h12.87c4.06,0,7.58-.77,10.57-2.3,2.99-1.54,5.3-3.72,6.96-6.57,1.65-2.84,2.48-6.17,2.48-10s-.83-7.23-2.48-10.04c-1.65-2.81-3.97-4.99-6.96-6.52-2.99-1.54-6.51-2.3-10.57-2.3h-12.87v37.74Z"/>
          <path class="cls-2" d="M891.57,121.97l27.13-60.88h13.92l27.22,60.88h-14.79l-22.26-53.75h5.57l-22.35,53.75h-14.44ZM905.13,108.93l3.74-10.7h31.31l3.83,10.7h-38.88Z"/>
        </g>
        <g>
          <path class="cls-1" d="M214.31,40.33c-1.43,0-2.75-.24-3.97-.71s-2.28-1.14-3.18-2c-.9-.86-1.6-1.88-2.1-3.06-.5-1.18-.75-2.46-.75-3.85s.25-2.67.75-3.85c.5-1.18,1.2-2.19,2.11-3.06.91-.86,1.97-1.53,3.18-2,1.21-.47,2.54-.71,3.98-.71,1.53,0,2.93.26,4.2.79,1.26.53,2.33,1.31,3.21,2.34l-2.24,2.11c-.68-.73-1.43-1.28-2.27-1.64-.84-.36-1.75-.55-2.73-.55s-1.88.16-2.69.48c-.81.32-1.51.77-2.11,1.36-.6.59-1.06,1.28-1.39,2.08s-.49,1.68-.49,2.65.16,1.84.49,2.65c.33.8.79,1.5,1.39,2.08.6.59,1.3,1.04,2.11,1.36.81.32,1.71.48,2.69.48s1.89-.18,2.73-.55c.84-.36,1.59-.92,2.27-1.67l2.24,2.14c-.87,1.02-1.94,1.79-3.21,2.32-1.27.53-2.67.8-4.22.8Z"/>
          <path class="cls-1" d="M224.83,40.06v-18.7h3.47v15.77h9.78v2.94h-13.25Z"/>
          <path class="cls-1" d="M240.33,19.84l3.61-3.66h3.93l-4.65,3.66h-2.89ZM240.84,40.06v-18.7h3.47v18.7h-3.47Z"/>
          <path class="cls-1" d="M249.36,40.06v-18.7h2.86l11.73,14.4h-1.42v-14.4h3.45v18.7h-2.86l-11.73-14.4h1.42v14.4h-3.45Z"/>
          <path class="cls-1" d="M271.01,40.06v-18.7h3.47v18.7h-3.47Z"/>
          <path class="cls-1" d="M288.19,40.33c-1.43,0-2.75-.24-3.97-.71s-2.28-1.14-3.18-2c-.9-.86-1.6-1.88-2.1-3.06-.5-1.18-.75-2.46-.75-3.85s.25-2.67.75-3.85c.5-1.18,1.2-2.19,2.11-3.06.91-.86,1.97-1.53,3.18-2,1.21-.47,2.54-.71,3.98-.71,1.53,0,2.93.26,4.2.79,1.26.53,2.33,1.31,3.21,2.34l-2.24,2.11c-.68-.73-1.43-1.28-2.27-1.64-.84-.36-1.75-.55-2.73-.55s-1.88.16-2.69.48c-.81.32-1.51.77-2.11,1.36-.6.59-1.06,1.28-1.39,2.08s-.49,1.68-.49,2.65.16,1.84.49,2.65c.33.8.79,1.5,1.39,2.08.6.59,1.3,1.04,2.11,1.36.81.32,1.71.48,2.69.48s1.89-.18,2.73-.55c.84-.36,1.59-.92,2.27-1.67l2.24,2.14c-.87,1.02-1.94,1.79-3.21,2.32-1.27.53-2.67.8-4.22.8Z"/>
          <path class="cls-1" d="M295.67,40.06l8.42-18.7h3.42l8.44,18.7h-3.63l-7.24-16.86h1.39l-7.21,16.86h-3.58ZM299.54,35.74l.94-2.73h10.1l.94,2.73h-11.97Z"/>
          <path class="cls-1" d="M324.13,40.33c-1.46,0-2.86-.21-4.2-.63-1.34-.42-2.4-.96-3.18-1.62l1.2-2.7c.75.59,1.67,1.08,2.78,1.47,1.1.39,2.24.59,3.39.59.98,0,1.77-.11,2.38-.32.6-.21,1.05-.5,1.34-.87.28-.36.43-.78.43-1.24,0-.57-.21-1.03-.61-1.38-.41-.35-.94-.62-1.59-.83-.65-.2-1.37-.4-2.16-.57-.79-.18-1.59-.39-2.38-.63-.79-.24-1.51-.55-2.16-.94-.65-.38-1.18-.9-1.59-1.54-.41-.64-.61-1.46-.61-2.46s.27-1.95.81-2.79,1.37-1.52,2.49-2.03c1.11-.51,2.52-.76,4.23-.76,1.12,0,2.24.14,3.34.43,1.1.29,2.07.69,2.89,1.23l-1.1,2.7c-.84-.5-1.7-.87-2.59-1.11-.89-.24-1.75-.36-2.56-.36-.96,0-1.74.12-2.34.35s-1.03.53-1.31.91c-.28.37-.41.8-.41,1.28,0,.57.2,1.03.6,1.38.4.35.93.62,1.58.81.65.2,1.38.39,2.18.57.8.19,1.6.4,2.39.63.79.23,1.51.53,2.16.91.65.37,1.18.88,1.58,1.52.4.64.6,1.45.6,2.43s-.27,1.92-.81,2.77c-.54.85-1.38,1.52-2.5,2.03-1.12.51-2.54.76-4.25.76Z"/>
          <path class="cls-1" d="M342.51,40.06v-18.7h8.18c2.03,0,3.81.39,5.34,1.18,1.53.78,2.73,1.87,3.58,3.26.85,1.39,1.28,3.03,1.28,4.92s-.43,3.5-1.28,4.9c-.85,1.4-2.05,2.49-3.58,3.27-1.53.78-3.31,1.18-5.34,1.18h-8.18ZM345.98,37.12h4.54c1.39,0,2.6-.27,3.63-.8,1.03-.53,1.83-1.28,2.39-2.24.56-.96.84-2.08.84-3.37s-.28-2.43-.84-3.38c-.56-.95-1.36-1.7-2.39-2.23-1.03-.53-2.24-.8-3.63-.8h-4.54v12.83Z"/>
          <path class="cls-1" d="M364.58,40.06v-18.7h13.65v2.91h-10.18v12.88h10.55v2.91h-14.03ZM367.79,31.99v-2.86h9.3v2.86h-9.3Z"/>
          <path class="cls-1" d="M389.86,40.06v-18.7h7.67c2.49,0,4.45.59,5.87,1.76,1.42,1.18,2.12,2.81,2.12,4.89,0,1.37-.32,2.55-.96,3.54-.64.99-1.55,1.75-2.74,2.27-1.19.53-2.61.79-4.26.79h-5.77l1.55-1.58v7.03h-3.47ZM393.33,33.41l-1.55-1.66h5.61c1.53,0,2.69-.33,3.46-.99.77-.66,1.16-1.58,1.16-2.75s-.39-2.11-1.16-2.75-1.93-.96-3.46-.96h-5.61l1.55-1.71v10.82ZM402.09,40.06l-4.73-6.79h3.71l4.76,6.79h-3.74Z"/>
          <path class="cls-1" d="M409.39,40.06v-18.7h13.65v2.91h-10.18v12.88h10.55v2.91h-14.03ZM412.6,31.99v-2.86h9.3v2.86h-9.3Z"/>
          <path class="cls-1" d="M435.95,40.33c-1.43,0-2.75-.24-3.97-.71s-2.28-1.14-3.18-2c-.9-.86-1.6-1.88-2.1-3.06-.5-1.18-.75-2.46-.75-3.85s.25-2.67.75-3.85c.5-1.18,1.2-2.19,2.11-3.06.91-.86,1.97-1.53,3.18-2,1.21-.47,2.54-.71,3.98-.71,1.53,0,2.93.26,4.2.79,1.26.53,2.33,1.31,3.21,2.34l-2.24,2.11c-.68-.73-1.43-1.28-2.27-1.64-.84-.36-1.75-.55-2.73-.55s-1.88.16-2.69.48c-.81.32-1.51.77-2.11,1.36-.6.59-1.06,1.28-1.39,2.08s-.49,1.68-.49,2.65.16,1.84.49,2.65c.33.8.79,1.5,1.39,2.08.6.59,1.3,1.04,2.11,1.36.81.32,1.71.48,2.69.48s1.89-.18,2.73-.55c.84-.36,1.59-.92,2.27-1.67l2.24,2.14c-.87,1.02-1.94,1.79-3.21,2.32-1.27.53-2.67.8-4.22.8Z"/>
          <path class="cls-1" d="M454.49,40.33c-2.57,0-4.57-.72-6.03-2.16-1.45-1.44-2.18-3.53-2.18-6.25v-10.55h3.47v10.42c0,1.92.41,3.32,1.24,4.19.83.87,2,1.31,3.51,1.31s2.68-.44,3.5-1.31c.82-.87,1.23-2.27,1.23-4.19v-10.42h3.42v10.55c0,2.73-.73,4.81-2.18,6.25-1.45,1.44-3.45,2.16-6,2.16Z"/>
          <path class="cls-1" d="M467.53,40.06v-18.7h7.7c1.66,0,3.08.27,4.26.8,1.18.53,2.1,1.3,2.74,2.3.64,1,.96,2.18.96,3.55s-.32,2.56-.96,3.55c-.64,1-1.55,1.76-2.74,2.3-1.19.53-2.61.8-4.26.8h-5.77l1.55-1.63v7.03h-3.47ZM471.01,33.41l-1.55-1.68h5.61c1.53,0,2.69-.32,3.46-.98.77-.65,1.16-1.56,1.16-2.74s-.39-2.11-1.16-2.75c-.78-.64-1.93-.96-3.46-.96h-5.61l1.55-1.71v10.82Z"/>
          <path class="cls-1" d="M486.66,40.06v-18.7h13.65v2.91h-10.18v12.88h10.55v2.91h-14.03ZM489.87,31.99v-2.86h9.3v2.86h-9.3Z"/>
          <path class="cls-1" d="M504.57,40.06v-18.7h7.67c2.49,0,4.45.59,5.86,1.76s2.12,2.81,2.12,4.89c0,1.37-.32,2.55-.96,3.54-.64.99-1.55,1.75-2.74,2.27-1.19.53-2.61.79-4.26.79h-5.77l1.55-1.58v7.03h-3.47ZM508.04,33.41l-1.55-1.66h5.61c1.53,0,2.69-.33,3.46-.99.78-.66,1.16-1.58,1.16-2.75s-.39-2.11-1.16-2.75c-.77-.64-1.93-.96-3.46-.96h-5.61l1.55-1.71v10.82ZM516.81,40.06l-4.73-6.79h3.71l4.76,6.79h-3.74Z"/>
          <path class="cls-1" d="M521.45,40.06l8.42-18.7h3.42l8.44,18.7h-3.63l-7.24-16.86h1.39l-7.21,16.86h-3.58ZM525.33,35.74l.93-2.73h10.1l.94,2.73h-11.97Z"/>
          <path class="cls-1" d="M552.5,40.33c-1.42,0-2.75-.24-3.97-.71-1.22-.47-2.28-1.14-3.18-2-.9-.86-1.6-1.88-2.1-3.06s-.75-2.46-.75-3.85.25-2.67.75-3.85c.5-1.18,1.2-2.19,2.11-3.06.91-.86,1.97-1.53,3.18-2,1.21-.47,2.54-.71,3.98-.71,1.53,0,2.93.26,4.19.79,1.26.53,2.33,1.31,3.21,2.34l-2.25,2.11c-.68-.73-1.43-1.28-2.27-1.64-.84-.36-1.75-.55-2.73-.55s-1.88.16-2.69.48c-.81.32-1.51.77-2.11,1.36-.6.59-1.06,1.28-1.39,2.08-.33.8-.5,1.68-.5,2.65s.17,1.84.5,2.65c.33.8.79,1.5,1.39,2.08s1.3,1.04,2.11,1.36c.81.32,1.71.48,2.69.48s1.89-.18,2.73-.55c.84-.36,1.59-.92,2.27-1.67l2.25,2.14c-.87,1.02-1.94,1.79-3.21,2.32-1.26.53-2.67.8-4.22.8ZM551.57,46.16c-.48,0-.93-.05-1.34-.15-.41-.1-.78-.24-1.12-.41l.62-1.58c.28.14.57.25.87.32.29.07.61.11.95.11.52,0,.88-.09,1.1-.27s.32-.41.32-.69c0-.27-.11-.48-.33-.64-.22-.16-.58-.24-1.08-.24h-.83l.72-2.73h1.82l-.37,1.5c.78.09,1.37.34,1.75.76.38.42.57.91.57,1.48,0,.78-.33,1.4-.99,1.86-.66.45-1.54.68-2.64.68Z"/>
          <path class="cls-1" d="M559.98,40.06l8.42-18.7h3.42l8.44,18.7h-3.63l-7.24-16.86h1.39l-7.21,16.86h-3.58ZM563.86,35.74l.93-2.73h10.1l.94,2.73h-11.97ZM572.22,19.97c-.48,0-.91-.1-1.28-.29-.38-.2-.71-.41-1-.65-.29-.24-.58-.46-.87-.65-.29-.2-.57-.29-.85-.29-.39,0-.7.17-.94.51-.23.34-.36.74-.37,1.2h-1.95c.02-1.09.3-1.99.84-2.71.54-.72,1.28-1.08,2.21-1.08.5,0,.93.09,1.31.28s.71.41,1,.65c.29.25.58.47.87.65.28.19.57.28.85.28.39,0,.7-.16.92-.49.22-.33.34-.72.36-1.16h1.9c-.02,1.07-.29,1.96-.81,2.69-.53.72-1.25,1.08-2.18,1.08Z"/>
          <path class="cls-1" d="M591.14,40.33c-1.46,0-2.81-.24-4.04-.72s-2.3-1.15-3.21-2.02c-.91-.86-1.61-1.88-2.11-3.05s-.75-2.45-.75-3.83.25-2.67.75-3.83c.5-1.17,1.2-2.18,2.11-3.05.91-.86,1.98-1.54,3.21-2.02s2.57-.72,4.01-.72,2.8.24,4.02.72c1.22.48,2.29,1.15,3.19,2.02.91.86,1.61,1.88,2.11,3.05.5,1.17.75,2.44.75,3.83s-.25,2.67-.75,3.85c-.5,1.18-1.2,2.19-2.11,3.05-.91.86-1.97,1.52-3.19,2-1.22.48-2.55.72-3.99.72ZM591.11,37.29c.94,0,1.82-.16,2.62-.48.8-.32,1.5-.78,2.08-1.38.59-.6,1.05-1.29,1.38-2.08.33-.79.49-1.67.49-2.63s-.16-1.84-.49-2.63c-.33-.79-.79-1.49-1.38-2.08-.59-.6-1.28-1.06-2.08-1.38-.8-.32-1.67-.48-2.62-.48s-1.81.16-2.6.48c-.79.32-1.49.78-2.08,1.38-.6.6-1.06,1.29-1.39,2.08-.33.79-.5,1.67-.5,2.63s.17,1.82.5,2.62c.33.8.79,1.5,1.38,2.1.59.6,1.28,1.06,2.08,1.38.8.32,1.67.48,2.62.48Z"/>
        </g>
      </g>
    </g>
  </g>
</svg>